<svg width="32" height="32" viewBox="0 0 32 32" fill="none" xmlns="http://www.w3.org/2000/svg">
<g clip-path="url(#clip0)">
<path d="M16.0001 32C24.8366 32 32.0001 24.8366 32.0001 16C32.0001 7.16344 24.8366 0 16.0001 0C7.1635 0 6.10352e-05 7.16344 6.10352e-05 16C6.10352e-05 24.8366 7.1635 32 16.0001 32Z" fill="#3C5A9A"/>
<path d="M21.2025 4.91113H17.6581C15.5548 4.91113 13.2153 5.79578 13.2153 8.84468C13.2255 9.90704 13.2153 10.9245 13.2153 12.0695H10.782V15.9416H13.2906V27.0887H17.9002V15.8681H20.9427L21.218 12.0586H17.8208C17.8208 12.0586 17.8284 10.3641 17.8208 9.87194C17.8208 8.66708 19.0745 8.73608 19.1499 8.73608C19.7465 8.73608 20.9064 8.73782 21.2042 8.73608V4.91113H21.2025Z" fill="white"/>
</g>
<defs>
<clipPath id="clip0">
<rect width="32" height="32" fill="white"/>
</clipPath>
</defs>
</svg>
