<svg width="32" height="32" viewBox="0 0 32 32" fill="none" xmlns="http://www.w3.org/2000/svg">
<path d="M31.1111 0H0.888889C0.397969 0 0 0.397969 0 0.888889V31.1111C0 31.602 0.397969 32 0.888889 32H31.1111C31.602 32 32 31.602 32 31.1111V0.888889C32 0.397969 31.602 0 31.1111 0Z" fill="#DC4E41"/>
<path d="M12.8 15.1999V17.1199H15.976C15.848 17.9439 15.016 19.5359 12.8 19.5359C10.888 19.5359 9.32801 17.9519 9.32801 15.9999C9.32801 14.0479 10.888 12.4639 12.8 12.4639C13.888 12.4639 14.616 12.9279 15.032 13.3279L16.552 11.8639C15.576 10.9519 14.312 10.3999 12.8 10.3999C9.70401 10.3999 7.20001 12.9039 7.20001 15.9999C7.20001 19.0959 9.70401 21.5999 12.8 21.5999C16.032 21.5999 18.176 19.3279 18.176 16.1279C18.176 15.7599 18.136 15.4799 18.088 15.1999H12.8Z" fill="white"/>
<path d="M24.8 15.2001H23.2V13.6001H21.6V15.2001H20V16.8001H21.6V18.4001H23.2V16.8001H24.8" fill="white"/>
</svg>
