<svg width="32" height="32" viewBox="0 0 32 32" fill="none" xmlns="http://www.w3.org/2000/svg">
<path d="M8.11436 31.8868C6.21131 31.8003 5.17752 31.4836 4.48991 31.2154C3.5788 30.8606 2.92924 30.4384 2.24543 29.7555C1.56163 29.0727 1.13841 28.4231 0.785568 27.512C0.517371 26.8244 0.200672 25.7906 0.114126 23.8875C0.019021 21.8304 0 21.2132 0 16.0014C0 10.7897 0.0209231 10.1734 0.113175 8.11436C0.199721 6.21131 0.518323 5.17942 0.784617 4.48991C1.13936 3.5788 1.56258 2.92924 2.24448 2.24448C2.92733 1.56163 3.5769 1.13746 4.48896 0.784617C5.17657 0.51642 6.21036 0.199721 8.11341 0.113175C10.1715 0.019021 10.7897 0 15.9995 0C21.2113 0 21.8276 0.0209231 23.8866 0.113175C25.7896 0.199721 26.8215 0.518323 27.511 0.784617C28.4221 1.13746 29.0717 1.56163 29.7555 2.24448C30.4393 2.92733 30.8606 3.57785 31.2154 4.48896C31.4836 5.17657 31.8003 6.21036 31.8868 8.11341C31.981 10.1724 32 10.7887 32 16.0005C32 21.2103 31.981 21.8285 31.8868 23.8875C31.8003 25.7906 31.4817 26.8244 31.2154 27.512C30.8606 28.4231 30.4384 29.0727 29.7555 29.7555C29.0727 30.4384 28.4221 30.8606 27.511 31.2154C26.8234 31.4836 25.7896 31.8003 23.8866 31.8868C21.8295 31.981 21.2113 32 15.9995 32C10.7897 32 10.1715 31.9819 8.11436 31.8868Z" fill="url(#paint0_radial)"/>
<path d="M8.11436 31.8868C6.21131 31.8003 5.17752 31.4836 4.48991 31.2154C3.5788 30.8606 2.92924 30.4384 2.24543 29.7555C1.56163 29.0727 1.13841 28.4231 0.785568 27.512C0.517371 26.8244 0.200672 25.7906 0.114126 23.8875C0.019021 21.8304 0 21.2132 0 16.0014C0 10.7897 0.0209231 10.1734 0.113175 8.11436C0.199721 6.21131 0.518323 5.17942 0.784617 4.48991C1.13936 3.5788 1.56258 2.92924 2.24448 2.24448C2.92733 1.56163 3.5769 1.13746 4.48896 0.784617C5.17657 0.51642 6.21036 0.199721 8.11341 0.113175C10.1715 0.019021 10.7897 0 15.9995 0C21.2113 0 21.8276 0.0209231 23.8866 0.113175C25.7896 0.199721 26.8215 0.518323 27.511 0.784617C28.4221 1.13746 29.0717 1.56163 29.7555 2.24448C30.4393 2.92733 30.8606 3.57785 31.2154 4.48896C31.4836 5.17657 31.8003 6.21036 31.8868 8.11341C31.981 10.1724 32 10.7887 32 16.0005C32 21.2103 31.981 21.8285 31.8868 23.8875C31.8003 25.7906 31.4817 26.8244 31.2154 27.512C30.8606 28.4231 30.4384 29.0727 29.7555 29.7555C29.0727 30.4384 28.4221 30.8606 27.511 31.2154C26.8234 31.4836 25.7896 31.8003 23.8866 31.8868C21.8295 31.981 21.2113 32 15.9995 32C10.7897 32 10.1715 31.9819 8.11436 31.8868Z" fill="url(#paint1_radial)"/>
<path d="M12.0714 16.0683C12.0714 13.8798 13.845 12.1053 16.0334 12.1053C18.2219 12.1053 19.9965 13.8798 19.9965 16.0683C19.9965 18.2567 18.2219 20.0313 16.0334 20.0313C13.845 20.0313 12.0714 18.2567 12.0714 16.0683ZM9.92904 16.0683C9.92904 19.4397 12.662 22.1727 16.0334 22.1727C19.4049 22.1727 22.1379 19.4397 22.1379 16.0683C22.1379 12.6968 19.4049 9.96388 16.0334 9.96388C12.662 9.96388 9.92913 12.6966 9.92913 16.0683H9.92904ZM20.953 9.72184C20.9529 10.004 21.0365 10.2798 21.1931 10.5145C21.3498 10.7492 21.5725 10.9321 21.8332 11.0402C22.0938 11.1482 22.3806 11.1766 22.6574 11.1217C22.9341 11.0667 23.1884 10.931 23.3879 10.7315C23.5875 10.5321 23.7235 10.278 23.7787 10.0013C23.8338 9.72457 23.8057 9.43772 23.6978 9.17701C23.5899 8.91629 23.4072 8.69342 23.1726 8.53657C22.9381 8.37972 22.6623 8.29595 22.3802 8.29584H22.3796C22.0014 8.29601 21.6387 8.44629 21.3713 8.71366C21.1038 8.98103 20.9534 9.34364 20.953 9.72184ZM11.2306 25.745C10.0716 25.6922 9.44163 25.4991 9.02297 25.336C8.46794 25.12 8.07192 24.8626 7.65555 24.4468C7.23918 24.031 6.98145 23.6354 6.76632 23.0803C6.60312 22.6619 6.41006 22.0317 6.35737 20.8727C6.29974 19.6196 6.28823 19.2432 6.28823 16.0685C6.28823 12.8938 6.30069 12.5184 6.35737 11.2642C6.41015 10.1052 6.60464 9.47627 6.76632 9.05658C6.9824 8.50155 7.23976 8.10553 7.65555 7.68916C8.07135 7.27279 8.46699 7.01506 9.02297 6.79993C9.44144 6.63673 10.0716 6.44367 11.2306 6.39098C12.4837 6.33335 12.8602 6.32184 16.0334 6.32184C19.2067 6.32184 19.5835 6.33411 20.8377 6.39117C21.9967 6.44395 22.6256 6.63844 23.0453 6.80012C23.6004 7.01525 23.9964 7.27355 24.4128 7.68935C24.8291 8.10515 25.0859 8.50174 25.302 9.05677C25.4652 9.47523 25.6583 10.1054 25.7109 11.2644C25.7686 12.5186 25.7801 12.894 25.7801 16.0687C25.7801 19.2433 25.7686 19.6187 25.7109 20.8729C25.6582 22.0319 25.4641 22.6619 25.302 23.0805C25.0859 23.6356 24.8286 24.0316 24.4128 24.447C23.997 24.8624 23.6004 25.1202 23.0453 25.3362C22.6269 25.4994 21.9967 25.6925 20.8377 25.7452C19.5846 25.8028 19.2081 25.8143 16.0334 25.8143C12.8587 25.8143 12.4834 25.8028 11.2306 25.7452V25.745ZM11.1322 4.25217C9.86665 4.3098 9.00186 4.51047 8.24663 4.80435C7.46496 5.10783 6.80237 5.51497 6.14072 6.17557C5.47908 6.83617 5.07298 7.49886 4.7695 8.28147C4.47562 9.03718 4.27495 9.90149 4.21732 11.167C4.15873 12.4346 4.14532 12.8398 4.14532 16.0683C4.14532 19.2967 4.15873 19.7019 4.21732 20.9695C4.27495 22.2352 4.47562 23.0994 4.7695 23.8551C5.07298 24.6367 5.47917 25.3007 6.14072 25.961C6.80227 26.6213 7.46401 27.0279 8.24663 27.3322C9.00329 27.6261 9.86665 27.8267 11.1322 27.8844C12.4004 27.942 12.805 27.9564 16.0334 27.9564C19.2619 27.9564 19.6671 27.943 20.9347 27.8844C22.2003 27.8267 23.0646 27.6261 23.8203 27.3322C24.6019 27.0279 25.2645 26.6216 25.9262 25.961C26.5878 25.3004 26.9931 24.6367 27.2974 23.8551C27.5913 23.0994 27.7929 22.2351 27.8496 20.9695C27.9072 19.701 27.9206 19.2967 27.9206 16.0683C27.9206 12.8398 27.9072 12.4346 27.8496 11.167C27.7919 9.90139 27.5913 9.0367 27.2974 8.28147C26.9931 7.49981 26.5868 6.83721 25.9262 6.17557C25.2656 5.51393 24.6019 5.10783 23.8212 4.80435C23.0646 4.51047 22.2002 4.30885 20.9356 4.25217C19.6679 4.19425 19.2628 4.18018 16.0349 4.18018C12.8069 4.18018 12.4009 4.19359 11.1327 4.25217" fill="white"/>
<defs>
<radialGradient id="paint0_radial" cx="0" cy="0" r="1" gradientUnits="userSpaceOnUse" gradientTransform="translate(2.07101 31.299) scale(40.6281)">
<stop offset="0.09" stop-color="#FA8F21"/>
<stop offset="0.78" stop-color="#D82D7E"/>
</radialGradient>
<radialGradient id="paint1_radial" cx="0" cy="0" r="1" gradientUnits="userSpaceOnUse" gradientTransform="translate(22.1653 30.2715) scale(35.7531)">
<stop offset="0.64" stop-color="#8C3AAA" stop-opacity="0"/>
<stop offset="1" stop-color="#8C3AAA"/>
</radialGradient>
</defs>
</svg>
