<svg width="32" height="32" viewBox="0 0 32 32" fill="none" xmlns="http://www.w3.org/2000/svg">
<g clip-path="url(#clip0)">
<path d="M16 0C7.16343 0 6.10352e-05 7.16335 6.10352e-05 15.9999C6.10352e-05 24.8365 7.16343 31.9998 16 31.9998C24.8366 31.9998 32.0001 24.8365 32.0001 15.9999C32 7.16335 24.8365 0 16 0ZM11.7312 23.7351H8.21825V12.3858H11.7312V23.7351ZM9.95799 10.8995C8.8107 10.8995 7.88061 9.96188 7.88061 8.8054C7.88061 7.64879 8.81082 6.71119 9.95799 6.71119C11.1052 6.71119 12.0352 7.64879 12.0352 8.8054C12.0353 9.96195 11.1052 10.8995 9.95799 10.8995ZM24.896 23.7351H21.4001V17.7777C21.4001 16.1437 20.7794 15.2317 19.4874 15.2317C18.0813 15.2317 17.3467 16.1816 17.3467 17.7777V23.7351H13.9773V12.3858H17.3467V13.9144C17.3467 13.9144 18.3602 12.0396 20.7667 12.0396C23.1733 12.0396 24.8961 13.5091 24.8961 16.5489L24.896 23.7351Z" fill="url(#paint0_linear)"/>
</g>
<defs>
<linearGradient id="paint0_linear" x1="4.68634" y1="4.68626" x2="27.3137" y2="27.3136" gradientUnits="userSpaceOnUse">
<stop stop-color="#2489BE"/>
<stop offset="1" stop-color="#0575B3"/>
</linearGradient>
<clipPath id="clip0">
<rect width="32" height="32" fill="white"/>
</clipPath>
</defs>
</svg>
