<svg width="32" height="32" viewBox="0 0 32 32" fill="none" xmlns="http://www.w3.org/2000/svg">
<path d="M31.5285 15.9557C31.5285 24.5601 24.5507 31.5379 15.9463 31.5379C7.34185 31.5379 0.364075 24.5601 0.364075 15.9557C0.364075 7.35129 7.34185 0.373535 15.9463 0.373535C24.5507 0.373535 31.5285 7.35129 31.5285 15.9557Z" fill="#CE0000"/>
<path d="M14.6404 5.59099C10.2493 6.0621 5.8759 9.43988 5.69812 14.2754C5.58256 17.2265 6.81813 19.4399 9.76925 20.0621C10.107 18.6665 10.1693 17.911 10.1693 17.911C10.1693 17.911 8.87147 16.6665 8.73814 15.8754C7.65369 9.51099 16.4448 5.16432 21.0582 9.60877C24.2405 12.6932 22.1427 22.1777 17.0049 21.191C12.0804 20.2488 19.4138 12.7021 15.4848 11.2177C12.2937 10.0088 10.5959 14.9065 12.107 17.3332C11.2182 21.511 9.30703 25.4488 10.0804 30.6843C12.5959 28.951 13.4404 25.6265 14.1337 22.1599C15.396 22.8888 16.0715 23.6532 17.6804 23.7688C23.6182 24.2043 26.9338 18.1243 26.1249 12.5065C25.396 7.52877 20.1871 4.99543 14.6404 5.59099Z" fill="white"/>
</svg>
