<svg width="32" height="32" viewBox="0 0 32 32" fill="none" xmlns="http://www.w3.org/2000/svg">
<g clip-path="url(#clip0)">
<path d="M16.0001 32C24.8366 32 32.0001 24.8366 32.0001 16C32.0001 7.16344 24.8366 0 16.0001 0C7.16351 0 6.10352e-05 7.16344 6.10352e-05 16C6.10352e-05 24.8366 7.16351 32 16.0001 32Z" fill="#2DAAE1"/>
<path d="M26.2591 9.63534C25.5044 9.97022 24.6938 10.1966 23.8416 10.2984C24.7114 9.77752 25.3777 8.95215 25.6924 7.96983C24.8661 8.46057 23.9619 8.80605 23.0189 8.99127C22.2515 8.17329 21.1572 7.6626 19.9465 7.6626C17.6227 7.6626 15.738 9.54646 15.738 11.8716C15.738 12.2011 15.7751 12.5225 15.8465 12.8311C12.3483 12.6553 9.24687 10.9796 7.17094 8.43342C6.80846 9.05527 6.60097 9.77828 6.60097 10.5497C6.60097 12.0098 7.34414 13.298 8.47338 14.0527C7.80489 14.032 7.15107 13.8515 6.56658 13.5264V13.5796C6.56658 15.6191 8.01723 17.3197 9.94288 17.7065C9.58914 17.8034 9.21791 17.8541 8.83386 17.8541C8.56232 17.8541 8.29887 17.8284 8.04152 17.78C8.57715 19.4516 10.1316 20.6684 11.973 20.7028C10.5324 21.832 8.71726 22.5052 6.74582 22.5052C6.40626 22.5052 6.07066 22.4849 5.74121 22.4452C7.60422 23.6398 9.81624 24.3372 12.1933 24.3372C19.935 24.3372 24.169 17.9235 24.169 12.3615C24.169 12.1789 24.165 11.9977 24.1562 11.8171C24.9811 11.2204 25.6932 10.4816 26.2591 9.63534Z" fill="white"/>
</g>
<defs>
<clipPath id="clip0">
<rect width="32" height="32" fill="white"/>
</clipPath>
</defs>
</svg>
