<svg width="38" height="38" viewBox="0 0 38 38" fill="none" xmlns="http://www.w3.org/2000/svg">
<rect width="38" height="38" rx="19" fill="#E8E8E8" fill-opacity="0.46"/>
<path d="M19.0011 14.9532L17.6367 13.5566L17.6362 13.556C17.2883 13.2018 16.8733 12.9204 16.4154 12.7283C15.9576 12.5362 15.466 12.4372 14.9695 12.4372C14.4729 12.4372 13.9814 12.5362 13.5235 12.7283C13.0657 12.9203 12.6507 13.2017 12.3028 13.5559C11.5889 14.2809 11.1887 15.2575 11.1887 16.275C11.1887 17.2926 11.589 18.2693 12.3031 18.9943L12.3034 18.9946L18.7784 25.5508L19.0007 25.776L19.2231 25.5508L25.6981 18.9946L25.6983 18.9943C26.4124 18.2693 26.8127 17.2926 26.8127 16.275C26.8127 15.2575 26.4125 14.2809 25.6986 13.5559C25.3509 13.2015 24.9359 12.92 24.4781 12.7279C24.0203 12.5359 23.5288 12.4372 23.0324 12.4375C23.0322 12.4375 23.0319 12.4375 23.0317 12.4375L23.032 12.75M19.0011 14.9532L20.3581 13.5695L20.3588 13.5687L20.582 13.7875M19.0011 14.9532L20.3572 13.5704M19.0011 14.9532L20.3572 13.5704M23.032 12.75C22.5748 12.7493 22.1222 12.8409 21.7013 13.0192C21.2803 13.1974 20.8996 13.4587 20.582 13.7875M23.032 12.75C23.487 12.7496 23.9376 12.8401 24.3572 13.0161C24.7768 13.1921 25.1571 13.4501 25.4757 13.775L23.032 12.75ZM20.582 13.7875L20.3572 13.5704M20.582 13.7875L20.3572 13.5704M23.0319 11.8125L23.0317 11.8125C22.4518 11.812 21.8777 11.9273 21.3429 12.1516C20.8082 12.3759 20.3236 12.7047 19.9176 13.1188L19.9164 13.12L19.2227 13.82L19.0007 14.0439L18.7788 13.82L18.085 13.12L18.0842 13.1191C17.6776 12.7058 17.1928 12.3774 16.658 12.1533C16.1233 11.9292 15.5493 11.8138 14.9695 11.8138C14.3896 11.8138 13.8156 11.9292 13.2809 12.1533C12.7461 12.3774 12.2614 12.7057 11.8548 13.1191L23.0319 11.8125ZM23.0319 11.8125C23.6118 11.8127 24.1858 11.9283 24.7206 12.1526C25.2554 12.3769 25.7401 12.7054 26.1466 13.119C26.9755 13.9629 27.4399 15.0984 27.4399 16.2813C27.4399 17.4639 26.9756 18.5993 26.147 19.4431C26.1468 19.4432 26.1467 19.4434 26.1465 19.4435L19.0007 26.6802M23.0319 11.8125L19.0007 26.6802M19.0007 26.6802L11.8549 19.4435C11.8548 19.4434 11.8547 19.4433 11.8546 19.4432C11.0259 18.5994 10.5615 17.464 10.5615 16.2813C10.5615 15.0985 11.0259 13.9629 11.8548 13.1191L19.0007 26.6802Z" fill="#BDBDBD" stroke="white" stroke-width="0.625"/>
</svg>
