<svg width="57" height="56" viewBox="0 0 57 56" fill="none" xmlns="http://www.w3.org/2000/svg">
<rect x="0.5" width="56" height="56" rx="28" fill="#E8E8E8" fill-opacity="0.4"/>
<g clip-path="url(#clip0)">
<path d="M25.7607 37.35C25.7607 37.9946 25.2511 38.5 24.6436 38.5C24.036 38.5 23.5264 37.9946 23.5264 37.35C23.5264 36.7053 24.036 36.2 24.6436 36.2C25.2511 36.2 25.7607 36.7053 25.7607 37.35Z" fill="#BDBDBD" stroke="white"/>
<path d="M35.5859 37.35C35.5859 37.9946 35.0763 38.5 34.4688 38.5C33.8612 38.5 33.3516 37.9946 33.3516 37.35C33.3516 36.7053 33.8612 36.2 34.4688 36.2C35.0763 36.2 35.5859 36.7053 35.5859 37.35Z" fill="#BDBDBD" stroke="white"/>
<path d="M38.4475 19.7827L38.4559 19.7927C38.4783 19.8194 38.495 19.8517 38.5041 19.8874C38.5128 19.9218 38.514 19.9579 38.5076 19.9929L36.2306 30.2531L36.2305 30.2536C36.2184 30.3085 36.1884 30.3553 36.1482 30.3873C36.1083 30.4191 36.0603 30.4347 36.0124 30.4336L36.0124 30.4334H36H24.9025H24.7192L24.5794 30.5518L22.8472 32.0185L22.7775 32.0775L22.7332 32.1572C22.6511 32.305 22.6081 32.4712 22.6077 32.6398C22.6072 32.8084 22.6494 32.9748 22.7307 33.123C22.8121 33.2712 22.9302 33.3968 23.0747 33.4866C23.2192 33.5764 23.3848 33.6271 23.5554 33.6331L23.5641 33.6334H23.5728H35.6837C35.7385 33.6334 35.793 33.6555 35.8349 33.6982C35.877 33.7412 35.9025 33.8016 35.9025 33.8667C35.9025 33.9318 35.877 33.9923 35.8349 34.0353C35.793 34.078 35.7385 34.1001 35.6837 34.1001H23.6878H23.6752L23.6626 34.1007C23.4341 34.1122 23.2059 34.0691 22.996 33.9743L22.7903 34.4301L22.996 33.9743C22.7876 33.8803 22.6026 33.7377 22.456 33.557C22.2532 33.2926 22.1456 32.9632 22.1534 32.6247C22.1612 32.2901 22.2812 31.9699 22.4913 31.7172L22.5538 31.6533L23.7133 30.6868L23.9695 30.4732L23.8706 30.1546L20.5716 19.5212L20.4938 19.2705L20.2432 19.1922L17.6633 18.3856C17.6633 18.3856 17.6632 18.3856 17.6632 18.3856C17.6092 18.3686 17.5609 18.3294 17.5316 18.2731C17.5022 18.2164 17.4957 18.149 17.5145 18.0866C17.5332 18.0244 17.5744 17.9754 17.6256 17.9478C17.6509 17.9341 17.6781 17.9259 17.7058 17.9232C17.7334 17.9205 17.7613 17.9234 17.7882 17.9318C17.7882 17.9318 17.7882 17.9318 17.7882 17.9318L20.7351 18.8558L20.736 18.8561C20.7685 18.8662 20.7991 18.8845 20.8248 18.9103C20.8503 18.936 20.8702 18.9683 20.8819 19.0049C20.882 19.0052 20.8821 19.0055 20.8822 19.0059L24.1661 29.6146L24.2751 29.9667H24.6437H35.425H35.8277L35.9135 29.5733L37.8326 20.7733L37.9648 20.1667H37.344H24.1539L24.0052 19.7001H38.2834C38.3137 19.7004 38.3439 19.7076 38.372 19.7213L38.5921 19.2724L38.372 19.7213C38.4005 19.7353 38.4265 19.756 38.4477 19.7826L38.4475 19.7827Z" fill="#BDBDBD" stroke="white"/>
</g>
<rect x="1" y="0.5" width="55" height="55" rx="27.5" stroke="white" stroke-opacity="0.5"/>
<defs>
<clipPath id="clip0">
<rect width="23" height="22" fill="white" transform="translate(16.5 17)"/>
</clipPath>
</defs>
</svg>
